<svg width="27" height="49" viewBox="0 0 27 49" fill="none" xmlns="http://www.w3.org/2000/svg">
<path d="M11.1038 14.8257H11.1028C11.0685 15.6632 10.7503 16.4644 10.1995 17.0962C9.6486 17.7279 8.89848 18.1533 8.07349 18.3013L8.06567 18.3022C7.91794 18.3211 6.3266 18.533 4.77563 19.6343C3.23272 20.7299 1.71717 22.7139 1.71704 26.3062V46.8237H24.8831V26.3062C24.8829 22.7139 23.3653 20.7301 21.8264 19.6353C20.2793 18.5347 18.6977 18.3245 18.5745 18.3091L18.5686 18.3081C17.7348 18.171 16.9739 17.7498 16.4143 17.1167C15.8547 16.4836 15.531 15.6769 15.4973 14.8325L15.4963 14.8267V12.7896H17.0637V14.813C17.0857 15.281 17.2653 15.7284 17.5735 16.0815C17.8814 16.4343 18.2997 16.6721 18.76 16.7573C20.1211 16.9178 22.0412 17.5973 23.6233 19.0913C25.2104 20.5902 26.4504 22.903 26.4504 26.313V47.5942H26.4495C26.4389 47.8036 26.3485 48.0006 26.1965 48.145C26.0445 48.2895 25.8428 48.3699 25.6331 48.3696L0.933838 48.3765H0.926025C0.723568 48.3666 0.532287 48.2814 0.388916 48.1382C0.245507 47.9948 0.160533 47.8027 0.150635 47.6001L0.149658 47.5933V26.3198C0.149683 22.9159 1.39515 20.6025 2.97876 19.103C4.55543 17.6103 6.46115 16.9291 7.78931 16.771C8.26346 16.6926 8.69662 16.4544 9.01489 16.0942C9.33329 15.7339 9.51704 15.2739 9.53638 14.7935V12.7964H11.1038V14.8257Z" fill="#902732" stroke="#902732" stroke-width="0.3"/>
<path d="M11.1169 8.80298H15.4832V1.7229H11.1169V8.80298ZM17.0496 10.0237H9.54956V0.926025H9.55054C9.56045 0.723483 9.64542 0.532314 9.78882 0.388916C9.93221 0.245523 10.1234 0.160543 10.3259 0.150635L10.3337 0.149658H16.2742V0.150635C16.4766 0.160595 16.6679 0.245573 16.8113 0.388916C16.9546 0.532296 17.0397 0.723518 17.0496 0.926025L17.0505 0.933838H17.0496V10.0237Z" fill="#902732" stroke="#902732" stroke-width="0.3"/>
<path d="M6.71021 37.8831H19.8899V29.0969H6.71021V37.8831ZM21.4563 38.6741C21.4464 38.8766 21.3614 39.0678 21.218 39.2112C21.0747 39.3545 20.8834 39.4395 20.6809 39.4495L20.6731 39.4504V39.4495H5.927C5.71745 39.4497 5.51552 39.3701 5.36353 39.2258C5.21149 39.0814 5.12108 38.8835 5.1106 38.6741L5.10962 38.6663V28.3059H5.1106C5.12108 28.0965 5.21149 27.8986 5.36353 27.7542C5.51553 27.6099 5.71743 27.5293 5.927 27.5295H20.6809V27.5305C20.8834 27.5405 21.0747 27.6255 21.218 27.7688C21.3614 27.9122 21.4464 28.1034 21.4563 28.3059L21.4573 28.3137H21.4563V38.6741Z" fill="#902732" stroke="#902732" stroke-width="0.3"/>
</svg>
