<svg width="43" height="48" viewBox="0 0 43 48" fill="none" xmlns="http://www.w3.org/2000/svg">
<path d="M5.58789 39.7812C5.58789 42.1458 7.40839 44.0845 9.72461 44.2725L9.73145 44.2734H9.73828L10.0801 44.2871H19.9434V25.7725H5.58789V39.7812ZM22.8066 44.2871H32.6562C35.0208 44.2871 36.9594 42.4667 37.1475 40.1504L37.1484 40.1436V40.1357L37.1621 39.7949V25.7725H22.8066V44.2871ZM3.21289 22.9121H3.5625L19.5938 22.9102H19.9434V15.0879H3.21289V22.9121ZM22.8066 22.9102H23.1562L39.1875 22.9121H39.5371V15.0879H22.8066V22.9102ZM27.3125 3.21289C24.8238 3.21289 22.8066 5.23001 22.8066 7.71875V12.2227H27.3838L27.667 12.2109H27.6748L27.6816 12.21C29.9979 12.0219 31.8184 10.0832 31.8184 7.71875C31.8184 5.23001 29.8012 3.21289 27.3125 3.21289ZM2.72559 25.7793L2.44434 25.7227C1.24929 25.4799 0.349609 24.4228 0.349609 23.1562V14.8438C0.349609 13.4878 1.38055 12.3723 2.70117 12.2383L2.96875 12.2246L8.93262 12.2266H9.57324L9.22754 11.6875C8.49397 10.5422 8.06836 9.18063 8.06836 7.71875C8.06836 3.64909 11.3678 0.349609 15.4375 0.349609C17.7172 0.349609 19.7551 1.38481 21.1074 3.01172L21.377 3.33594L21.6455 3.01172C22.9949 1.38511 25.0328 0.349609 27.3125 0.349609C31.3821 0.349609 34.6816 3.64909 34.6816 7.71875C34.6816 9.18064 34.2562 10.5422 33.5225 11.6875L33.1768 12.2266H33.8174L39.7812 12.2246C41.2276 12.2246 42.4004 13.3974 42.4004 14.8438V23.1562C42.4004 24.4219 41.5017 25.4791 40.3076 25.7227L40.0273 25.7793V26.0654L40.0254 39.7812L40.0156 40.1475C39.8375 43.7868 37.0192 46.7326 33.4355 47.1094L33.085 47.1377L32.6465 47.1504H10.0938C6.16772 47.1504 2.9587 44.0793 2.7373 40.209L2.72461 39.7812L2.72559 26.0654V25.7793ZM19.9434 7.70508L19.9297 7.36328V7.35645L19.9287 7.34961L19.9062 7.13379C19.6193 4.92125 17.7281 3.21289 15.4375 3.21289C12.9488 3.21289 10.9316 5.23001 10.9316 7.71875C10.9316 10.0832 12.7521 12.0219 15.0684 12.21L15.0752 12.2109H15.083L15.3662 12.2227H19.9434V7.71875H19.9443L19.9434 7.70508Z" fill="#902732" stroke="#F0ECE4" stroke-width="0.7"/>
</svg>
