<svg width="40" height="47" viewBox="0 0 40 47" fill="none" xmlns="http://www.w3.org/2000/svg">
<path d="M14.3838 17.5225C14.3838 15.1838 17.1256 13.923 18.8994 15.4443L38.6895 32.417C40.5769 34.036 39.5018 37.1311 37.0186 37.2305L28.0371 37.5898C26.9775 37.6323 25.9805 38.1021 25.2734 38.8926L19.1572 45.7314C17.4836 47.6032 14.3841 46.4196 14.3838 43.9072V17.5225ZM17.1924 43.7148L17.8037 43.0312L23.1797 37.0186C24.3937 35.6611 26.106 34.854 27.9248 34.7812L35.8301 34.4648L36.7197 34.4287L36.0439 33.8496L17.7705 18.1777L17.1924 17.6826V43.7148ZM1.75391 14.3926H7.60156C8.37692 14.3926 9.00586 15.0216 9.00586 15.7979C9.0056 16.5739 8.37676 17.2031 7.60156 17.2031H1.75391C0.978872 17.2029 0.349866 16.5738 0.349609 15.7979C0.349609 15.0217 0.978714 14.3928 1.75391 14.3926ZM24.7363 4.85742C25.2504 4.34308 26.0637 4.31081 26.6152 4.76074L26.7217 4.85742C27.2702 5.40625 27.2702 6.29593 26.7217 6.84473L22.6289 10.9404C22.0806 11.4891 21.192 11.489 20.6436 10.9404C20.0951 10.3916 20.095 9.50195 20.6436 8.95312L24.7363 4.85742ZM4.85449 4.85742C5.40285 4.30871 6.29243 4.30876 6.84082 4.85742L10.9336 8.95312C11.482 9.50191 11.482 10.3917 10.9336 10.9404C10.3853 11.4889 9.49659 11.4888 8.94824 10.9404L4.85449 6.84473C4.30619 6.29595 4.30613 5.40618 4.85449 4.85742ZM15.7881 0.349609C16.5633 0.349609 17.1922 0.978773 17.1924 1.75488V7.60645C17.1922 8.38259 16.5633 9.01172 15.7881 9.01172C15.013 9.01157 14.384 8.3825 14.3838 7.60645V1.75488C14.384 0.978867 15.013 0.349762 15.7881 0.349609Z" fill="#902732" stroke="#F0ECE4" stroke-width="0.7"/>
</svg>
