<svg width="47" height="47" viewBox="0 0 47 47" fill="none" xmlns="http://www.w3.org/2000/svg">
<mask id="path-1-inside-1_579_38" fill="white">
<path d="M30.0992 13.6983C29.9448 13.4987 29.7775 13.3085 29.5985 13.1288C28.9316 12.4598 28.1175 11.9559 27.2212 11.6572L24.2779 10.7013C24.0511 10.6214 23.8546 10.4731 23.7157 10.2768C23.5766 10.0806 23.5021 9.84618 23.5021 9.60581C23.5021 9.36543 23.5766 9.13098 23.7157 8.93476C23.8546 8.73853 24.0511 8.59023 24.2779 8.51025L25.7961 8.01718L25.7882 8.01517L27.2203 7.54953C27.7415 7.37173 28.2344 7.12395 28.6855 6.81436C28.9993 6.59794 29.293 6.35173 29.5624 6.07844C30.2005 5.43088 30.6845 4.64839 30.9787 3.78912L31.003 3.7163L31.9596 0.775235C32.0397 0.548552 32.1882 0.352258 32.3845 0.213411C32.5808 0.0745628 32.8154 0 33.0559 0C33.2967 0 33.5312 0.0745628 33.7275 0.213411C33.9238 0.352258 34.0723 0.548552 34.1524 0.775235L35.109 3.7163C35.4063 4.61045 35.9083 5.42295 36.575 6.08921C37.242 6.75548 38.055 7.25718 38.9498 7.5544L41.8931 8.51025L41.9518 8.52497C42.1787 8.60493 42.3752 8.75325 42.514 8.94946C42.6531 9.14568 42.7277 9.38013 42.7277 9.6205C42.7277 9.86088 42.6531 10.0953 42.514 10.2915C42.3752 10.4878 42.1787 10.6361 41.9518 10.7161L39.0086 11.6719C38.6356 11.7959 38.2765 11.9553 37.9366 12.1475C37.9394 12.1509 37.942 12.1542 37.9448 12.1576C37.4663 12.4272 37.0249 12.7615 36.634 13.1525C36.2523 13.5342 35.9246 13.9638 35.6584 14.4293L35.6531 14.4223C35.4565 14.767 35.2938 15.1311 35.1677 15.51L34.2112 18.4511C34.2026 18.4755 34.1932 18.4996 34.183 18.5233C34.0986 18.7194 33.9616 18.889 33.7865 19.0129C33.59 19.1518 33.3554 19.2263 33.1149 19.2263C32.8743 19.2263 32.6398 19.1518 32.4433 19.0129C32.2469 18.874 32.0985 18.6778 32.0186 18.4511L31.062 15.51C30.8458 14.8541 30.5196 14.2417 30.0992 13.6983ZM46.5362 21.818L44.9012 21.2869C44.4041 21.1218 43.9523 20.8431 43.5819 20.4729C43.2115 20.1028 42.9325 19.6514 42.7674 19.1547L42.2359 17.5207C42.1915 17.3948 42.109 17.2858 41.9999 17.2086C41.8909 17.1315 41.7606 17.0901 41.6269 17.0901C41.4932 17.0901 41.3629 17.1315 41.2537 17.2086C41.1447 17.2858 41.0623 17.3948 41.0179 17.5207L40.4864 19.1547C40.3245 19.6479 40.0504 20.0971 39.686 20.467C39.4661 20.6901 39.2169 20.8808 38.946 21.0341L38.9413 21.0322L38.9381 21.0339L38.9391 21.0379C38.7629 21.1371 38.5777 21.2206 38.3852 21.2869L36.7502 21.818C36.6242 21.8624 36.515 21.9447 36.4377 22.0539C36.3606 22.1628 36.3191 22.2931 36.3191 22.4266C36.3191 22.5602 36.3606 22.6905 36.4377 22.7994C36.515 22.9084 36.6242 22.9908 36.7502 23.0353L38.3852 23.5663C38.8832 23.7323 39.3354 24.0122 39.706 24.3839C39.8746 24.5529 40.0241 24.7389 40.1525 24.9382C40.3048 25.1754 40.4272 25.4317 40.5159 25.7013L41.0478 27.3355C41.0625 27.3778 41.0817 27.4182 41.1046 27.456C41.1505 27.5331 41.2125 27.6004 41.2866 27.6528C41.3955 27.7299 41.5258 27.7713 41.6596 27.7713C41.7933 27.7713 41.9236 27.7299 42.0325 27.6528C42.1417 27.5757 42.2242 27.4665 42.2686 27.3407L42.8001 25.7066C42.9654 25.21 43.2442 24.7586 43.6146 24.3884C43.985 24.0184 44.4368 23.7396 44.9339 23.5744L46.5689 23.0434C46.695 22.9989 46.8041 22.9167 46.8814 22.8075C46.9586 22.6986 47 22.5683 47 22.4348C47 22.3012 46.9586 22.1709 46.8814 22.062C46.8041 21.953 46.695 21.8706 46.5689 21.8261L46.5362 21.818ZM40.0502 29.3992C39.7421 29.1802 39.4834 28.9025 39.2876 28.5842C37.8783 37.2115 30.3906 43.7956 21.3651 43.7956C11.3351 43.7956 3.20426 35.6646 3.20426 25.6342C3.20426 15.6039 11.3351 7.47273 21.3651 7.47273C21.6233 7.47273 21.8803 7.47812 22.1358 7.4888C22.5261 7.0238 23.0379 6.67369 23.6166 6.47927L26.5239 5.53504C26.8223 5.43207 27.1065 5.29379 27.3701 5.12383C25.465 4.567 23.45 4.26835 21.3651 4.26835C9.56545 4.26835 0 13.8342 0 25.6342C0 37.4343 9.56545 47 21.3651 47C31.7274 47 40.3668 39.6227 42.3177 29.8333C41.9625 29.92 41.5929 29.936 41.2304 29.8794C40.8051 29.813 40.4011 29.6485 40.0502 29.3992ZM21.3651 35.2508C18.3785 35.2508 15.6206 33.8823 13.8067 31.5801C13.2591 30.8851 12.2518 30.7655 11.5567 31.3133C10.8617 31.8608 10.7422 32.8682 11.2898 33.5632C13.705 36.6287 17.386 38.4552 21.3651 38.4552C25.3386 38.4552 29.0153 36.6336 31.4309 33.5751C31.9793 32.8806 31.8609 31.8732 31.1667 31.3248C30.4722 30.7762 29.4648 30.8945 28.9162 31.589C27.1022 33.8862 24.3476 35.2508 21.3651 35.2508ZM17.6261 21.3616C17.6261 19.8876 16.4314 18.6928 14.9575 18.6928C13.4836 18.6928 12.2888 19.8876 12.2888 21.3616C12.2888 22.8355 13.4836 24.0303 14.9575 24.0303C16.4314 24.0303 17.6261 22.8355 17.6261 21.3616ZM30.4432 21.3616C30.4432 19.8876 29.2484 18.6928 27.7744 18.6928C26.3007 18.6928 25.1059 19.8876 25.1059 21.3616C25.1059 22.8355 26.3007 24.0303 27.7744 24.0303C29.2484 24.0303 30.4432 22.8355 30.4432 21.3616Z"/>
</mask>
<path d="M30.0992 13.6983C29.9448 13.4987 29.7775 13.3085 29.5985 13.1288C28.9316 12.4598 28.1175 11.9559 27.2212 11.6572L24.2779 10.7013C24.0511 10.6214 23.8546 10.4731 23.7157 10.2768C23.5766 10.0806 23.5021 9.84618 23.5021 9.60581C23.5021 9.36543 23.5766 9.13098 23.7157 8.93476C23.8546 8.73853 24.0511 8.59023 24.2779 8.51025L25.7961 8.01718L25.7882 8.01517L27.2203 7.54953C27.7415 7.37173 28.2344 7.12395 28.6855 6.81436C28.9993 6.59794 29.293 6.35173 29.5624 6.07844C30.2005 5.43088 30.6845 4.64839 30.9787 3.78912L31.003 3.7163L31.9596 0.775235C32.0397 0.548552 32.1882 0.352258 32.3845 0.213411C32.5808 0.0745628 32.8154 0 33.0559 0C33.2967 0 33.5312 0.0745628 33.7275 0.213411C33.9238 0.352258 34.0723 0.548552 34.1524 0.775235L35.109 3.7163C35.4063 4.61045 35.9083 5.42295 36.575 6.08921C37.242 6.75548 38.055 7.25718 38.9498 7.5544L41.8931 8.51025L41.9518 8.52497C42.1787 8.60493 42.3752 8.75325 42.514 8.94946C42.6531 9.14568 42.7277 9.38013 42.7277 9.6205C42.7277 9.86088 42.6531 10.0953 42.514 10.2915C42.3752 10.4878 42.1787 10.6361 41.9518 10.7161L39.0086 11.6719C38.6356 11.7959 38.2765 11.9553 37.9366 12.1475C37.9394 12.1509 37.942 12.1542 37.9448 12.1576C37.4663 12.4272 37.0249 12.7615 36.634 13.1525C36.2523 13.5342 35.9246 13.9638 35.6584 14.4293L35.6531 14.4223C35.4565 14.767 35.2938 15.1311 35.1677 15.51L34.2112 18.4511C34.2026 18.4755 34.1932 18.4996 34.183 18.5233C34.0986 18.7194 33.9616 18.889 33.7865 19.0129C33.59 19.1518 33.3554 19.2263 33.1149 19.2263C32.8743 19.2263 32.6398 19.1518 32.4433 19.0129C32.2469 18.874 32.0985 18.6778 32.0186 18.4511L31.062 15.51C30.8458 14.8541 30.5196 14.2417 30.0992 13.6983ZM46.5362 21.818L44.9012 21.2869C44.4041 21.1218 43.9523 20.8431 43.5819 20.4729C43.2115 20.1028 42.9325 19.6514 42.7674 19.1547L42.2359 17.5207C42.1915 17.3948 42.109 17.2858 41.9999 17.2086C41.8909 17.1315 41.7606 17.0901 41.6269 17.0901C41.4932 17.0901 41.3629 17.1315 41.2537 17.2086C41.1447 17.2858 41.0623 17.3948 41.0179 17.5207L40.4864 19.1547C40.3245 19.6479 40.0504 20.0971 39.686 20.467C39.4661 20.6901 39.2169 20.8808 38.946 21.0341L38.9413 21.0322L38.9381 21.0339L38.9391 21.0379C38.7629 21.1371 38.5777 21.2206 38.3852 21.2869L36.7502 21.818C36.6242 21.8624 36.515 21.9447 36.4377 22.0539C36.3606 22.1628 36.3191 22.2931 36.3191 22.4266C36.3191 22.5602 36.3606 22.6905 36.4377 22.7994C36.515 22.9084 36.6242 22.9908 36.7502 23.0353L38.3852 23.5663C38.8832 23.7323 39.3354 24.0122 39.706 24.3839C39.8746 24.5529 40.0241 24.7389 40.1525 24.9382C40.3048 25.1754 40.4272 25.4317 40.5159 25.7013L41.0478 27.3355C41.0625 27.3778 41.0817 27.4182 41.1046 27.456C41.1505 27.5331 41.2125 27.6004 41.2866 27.6528C41.3955 27.7299 41.5258 27.7713 41.6596 27.7713C41.7933 27.7713 41.9236 27.7299 42.0325 27.6528C42.1417 27.5757 42.2242 27.4665 42.2686 27.3407L42.8001 25.7066C42.9654 25.21 43.2442 24.7586 43.6146 24.3884C43.985 24.0184 44.4368 23.7396 44.9339 23.5744L46.5689 23.0434C46.695 22.9989 46.8041 22.9167 46.8814 22.8075C46.9586 22.6986 47 22.5683 47 22.4348C47 22.3012 46.9586 22.1709 46.8814 22.062C46.8041 21.953 46.695 21.8706 46.5689 21.8261L46.5362 21.818ZM40.0502 29.3992C39.7421 29.1802 39.4834 28.9025 39.2876 28.5842C37.8783 37.2115 30.3906 43.7956 21.3651 43.7956C11.3351 43.7956 3.20426 35.6646 3.20426 25.6342C3.20426 15.6039 11.3351 7.47273 21.3651 7.47273C21.6233 7.47273 21.8803 7.47812 22.1358 7.4888C22.5261 7.0238 23.0379 6.67369 23.6166 6.47927L26.5239 5.53504C26.8223 5.43207 27.1065 5.29379 27.3701 5.12383C25.465 4.567 23.45 4.26835 21.3651 4.26835C9.56545 4.26835 0 13.8342 0 25.6342C0 37.4343 9.56545 47 21.3651 47C31.7274 47 40.3668 39.6227 42.3177 29.8333C41.9625 29.92 41.5929 29.936 41.2304 29.8794C40.8051 29.813 40.4011 29.6485 40.0502 29.3992ZM21.3651 35.2508C18.3785 35.2508 15.6206 33.8823 13.8067 31.5801C13.2591 30.8851 12.2518 30.7655 11.5567 31.3133C10.8617 31.8608 10.7422 32.8682 11.2898 33.5632C13.705 36.6287 17.386 38.4552 21.3651 38.4552C25.3386 38.4552 29.0153 36.6336 31.4309 33.5751C31.9793 32.8806 31.8609 31.8732 31.1667 31.3248C30.4722 30.7762 29.4648 30.8945 28.9162 31.589C27.1022 33.8862 24.3476 35.2508 21.3651 35.2508ZM17.6261 21.3616C17.6261 19.8876 16.4314 18.6928 14.9575 18.6928C13.4836 18.6928 12.2888 19.8876 12.2888 21.3616C12.2888 22.8355 13.4836 24.0303 14.9575 24.0303C16.4314 24.0303 17.6261 22.8355 17.6261 21.3616ZM30.4432 21.3616C30.4432 19.8876 29.2484 18.6928 27.7744 18.6928C26.3007 18.6928 25.1059 19.8876 25.1059 21.3616C25.1059 22.8355 26.3007 24.0303 27.7744 24.0303C29.2484 24.0303 30.4432 22.8355 30.4432 21.3616Z" fill="#902732" stroke="#F0ECE4" stroke-width="1.4" mask="url(#path-1-inside-1_579_38)"/>
</svg>
