<svg width="92" height="92" fill="none" xmlns="http://www.w3.org/2000/svg"><circle cx="46" cy="46" r="46" fill="#202020"/><g clip-path="url(#clip0_344_2761)" fill="#BFBFBF"><path d="M22.014 45.503c0-4.167-.039-8.336.013-12.503.04-3.135 1.204-5.855 3.358-8.138 1.766-1.872 3.924-3.056 6.44-3.594 1.31-.28 2.64-.245 3.97-.245H48.9c3.404 0 6.81-.063 10.212.02 3.62.088 6.614 1.605 8.978 4.34a11.685 11.685 0 012.65 5.45c.141.713.24 1.448.242 2.173.016 8.312.036 16.625-.005 24.937-.017 3.415-1.367 6.308-3.827 8.674-1.7 1.636-3.728 2.678-6.032 3.135-.851.17-1.738.224-2.608.226-6.963.016-13.927.006-20.89.005-1.186 0-2.374.04-3.559-.005-4.526-.17-7.972-2.226-10.355-6.055-.897-1.443-1.418-3.04-1.603-4.727-.095-.866-.084-1.747-.086-2.621-.008-3.691-.003-7.383-.003-11.074h.002l-.002.002zm24.493 20.412c4.036 0 8.073.002 12.11-.002a8.54 8.54 0 002.483-.361 8.182 8.182 0 005.818-7.816c.002-8.137.007-16.274-.012-24.411a8.537 8.537 0 00-.28-2.161c-.972-3.628-4.201-6.066-7.965-6.067-8.14 0-16.28-.007-24.42.012-.7.002-1.42.1-2.095.284-3.639.99-6.06 4.2-6.06 7.97 0 7.938-.003 15.875.005 23.813 0 .584.032 1.173.111 1.752.3 2.162 1.342 3.91 3.048 5.253 1.514 1.19 3.259 1.734 5.18 1.733h12.078-.001z"/><path d="M58.745 45.517c-.014 6.776-5.438 12.057-11.863 12.222-7.167.185-12.447-5.475-12.623-11.865a12.246 12.246 0 0112.645-12.606c6.403.197 11.832 5.428 11.841 12.25zm-12.283 8.157c4.575-.032 8.175-3.614 8.207-8.163.03-4.481-3.674-8.191-8.162-8.169-4.548.023-8.148 3.608-8.166 8.124-.018 4.592 3.616 8.133 8.121 8.208zm16.348-21.41c.079 1.326-1.024 3.038-3.085 3.05-1.66.009-3.054-1.444-3.033-3.1.02-1.649 1.402-3.003 3.03-3.022 1.835-.022 3.165 1.527 3.086 3.072h.001z"/></g><defs><clipPath id="clip0_344_2761"><path fill="#fff" transform="translate(22 21)" d="M0 0h49v49H0z"/></clipPath></defs></svg>