<svg width="92" height="92" fill="none" xmlns="http://www.w3.org/2000/svg"><g clip-path="url(#clip0_344_2757)"><path d="M92 45.824c-.07 1.74-.076 3.28-.21 4.81-.164 1.866-.51 3.708-.928 5.536-1.257 5.499-3.4 10.622-6.542 15.306-5.254 7.832-12.236 13.571-20.962 17.163-3.053 1.256-6.22 2.121-9.465 2.734-2.869.541-5.759.67-8.665.614-1.263-.025-2.53-.02-3.784-.143a43.8 43.8 0 01-4.044-.612c-4.535-.875-8.872-2.344-12.944-4.533-9.484-5.1-16.373-12.616-20.718-22.462C2.203 60.761 1.185 57.131.55 53.383c-.498-2.942-.61-5.904-.525-8.875.278-9.833 3.49-18.645 9.423-26.448 5.99-7.881 13.79-13.209 23.248-16.115A45.864 45.864 0 0140.327.31c2.448-.316 4.903-.372 7.363-.252 1.11.055 2.225.077 3.33.186 2.203.217 4.371.647 6.512 1.206 7.073 1.846 13.376 5.163 18.852 10.009 6.733 5.958 11.346 13.27 13.84 21.912.73 2.536 1.278 5.114 1.522 7.743.152 1.63.18 3.273.253 4.71H92zM60.767 74.141l.032-.076c.856-.041 1.347-.441 1.534-1.3.724-3.335 1.448-6.671 2.156-10.011.776-3.661 1.538-7.326 2.299-10.99.767-3.693 1.528-7.386 2.286-11.08.692-3.371 1.385-6.743 2.062-10.117.5-2.49.978-4.984 1.457-7.478a.858.858 0 00-.04-.436 1.612 1.612 0 00-.791-.888c-.371-.19-.747-.266-1.162-.08-.462.206-.95.358-1.423.54-12.52 4.814-25.043 9.622-37.56 14.448-6.087 2.348-12.16 4.73-18.239 7.097-.635.248-.97.75-1.032 1.399-.06.623.38 1.245 1.003 1.49 1.6.63 3.203 1.254 4.81 1.867 2.924 1.117 5.85 2.226 8.78 3.33.242.092.37.235.449.484.61 1.937 1.238 3.868 1.85 5.804 1.17 3.711 2.334 7.426 3.507 11.136.058.184.148.371.268.522.49.617 1.573.752 2.192.26 1.607-1.282 3.2-2.58 4.803-3.865 1.087-.873 2.167-1.757 3.28-2.597.626-.473 1.338-.543 2.041-.136.513.297 1.027.6 1.508.944 3.191 2.291 6.371 4.599 9.562 6.892a180.21 180.21 0 003.587 2.512c.228.157.52.22.781.327v.002z" fill="#202020"/><path d="M30.563 51.288c.021.203.02.424.072.633.342 1.377.662 2.761 1.054 4.124.63 2.195 1.31 4.377 1.974 6.561.116.378.25.468.572.455.344-.014.535-.174.62-.539.06-.265.114-.533.155-.802.248-1.618.49-3.238.735-4.857.166-1.085.583-2.04 1.438-2.77.207-.177.39-.383.59-.57C43.139 48.51 48.51 43.502 53.87 38.48c1.913-1.792 3.793-3.62 5.692-5.426.16-.151.193-.293.055-.46-.136-.165-.292-.268-.512-.13-.168.105-.343.198-.511.3-6.311 3.866-12.626 7.724-18.928 11.603-2.71 1.668-5.398 3.375-8.086 5.079-.655.415-.968 1.058-1.017 1.844z" fill="#fff"/><path d="M30.563 51.289c.05-.786.362-1.429 1.017-1.844 2.688-1.704 5.375-3.41 8.086-5.079 6.302-3.879 12.618-7.737 18.928-11.603.168-.103.344-.195.51-.3.22-.138.377-.035.513.13.138.167.104.308-.055.46-1.9 1.806-3.78 3.634-5.692 5.426-5.36 5.022-10.73 10.03-16.097 15.045-.2.186-.383.392-.59.57-.855.73-1.272 1.684-1.438 2.769-.246 1.619-.487 3.238-.735 4.857-.041.27-.096.537-.156.802-.084.365-.275.526-.619.539-.323.013-.457-.077-.572-.455-.665-2.185-1.343-4.366-1.974-6.56-.392-1.364-.711-2.748-1.054-4.125-.052-.209-.05-.43-.073-.633h.001z" fill="#202020"/></g><defs><clipPath id="clip0_344_2757"><path fill="#fff" d="M0 0h92v92H0z"/></clipPath></defs></svg>