<svg width="12" height="14" viewBox="0 0 12 14" fill="none" xmlns="http://www.w3.org/2000/svg">
<path d="M6.27295 0.75C6.27295 0.335786 5.93716 0 5.52295 0C5.10874 0 4.77295 0.335786 4.77295 0.75H5.52295H6.27295ZM4.99262 13.2803C5.28551 13.5732 5.76039 13.5732 6.05328 13.2803L10.8263 8.50736C11.1191 8.21447 11.1191 7.73959 10.8263 7.4467C10.5334 7.15381 10.0585 7.15381 9.76559 7.4467L5.52295 11.6893L1.28031 7.4467C0.987415 7.15381 0.512542 7.15381 0.219648 7.4467C-0.073245 7.73959 -0.073245 8.21447 0.219648 8.50736L4.99262 13.2803ZM5.52295 0.75H4.77295L4.77295 12.75H5.52295H6.27295L6.27295 0.75H5.52295Z" fill="#902732"/>
</svg>
