<svg width="17" height="14" viewBox="0 0 17 14" fill="none" xmlns="http://www.w3.org/2000/svg">
<path d="M0.625 2.49947H9.48242C9.61175 2.8649 9.85116 3.18127 10.1677 3.40503C10.4842 3.62879 10.8624 3.74893 11.25 3.74893C11.6376 3.74893 12.0158 3.62879 12.3323 3.40503C12.6488 3.18127 12.8883 2.8649 13.0176 2.49947H15.625C15.7908 2.49947 15.9497 2.43362 16.0669 2.31641C16.1842 2.1992 16.25 2.04023 16.25 1.87447C16.25 1.70871 16.1842 1.54973 16.0669 1.43252C15.9497 1.31531 15.7908 1.24947 15.625 1.24947H13.0176C12.8883 0.884032 12.6488 0.567663 12.3323 0.343905C12.0158 0.120147 11.6376 0 11.25 0C10.8624 0 10.4842 0.120147 10.1677 0.343905C9.85116 0.567663 9.61175 0.884032 9.48242 1.24947H0.625C0.45924 1.24947 0.300268 1.31531 0.183058 1.43252C0.065848 1.54973 0 1.70871 0 1.87447C0 2.04023 0.065848 2.1992 0.183058 2.31641C0.300268 2.43362 0.45924 2.49947 0.625 2.49947ZM15.625 11.2495H13.0176C12.8883 10.884 12.6488 10.5677 12.3323 10.3439C12.0158 10.1201 11.6376 10 11.25 10C10.8624 10 10.4842 10.1201 10.1677 10.3439C9.85116 10.5677 9.61175 10.884 9.48242 11.2495H0.625C0.45924 11.2495 0.300268 11.3153 0.183058 11.4325C0.065848 11.5497 0 11.7087 0 11.8745C0 12.0402 0.065848 12.1992 0.183058 12.3164C0.300268 12.4336 0.45924 12.4995 0.625 12.4995H9.48242C9.61175 12.8649 9.85116 13.1813 10.1677 13.405C10.4842 13.6288 10.8624 13.7489 11.25 13.7489C11.6376 13.7489 12.0158 13.6288 12.3323 13.405C12.6488 13.1813 12.8883 12.8649 13.0176 12.4995H15.625C15.7908 12.4995 15.9497 12.4336 16.0669 12.3164C16.1842 12.1992 16.25 12.0402 16.25 11.8745C16.25 11.7087 16.1842 11.5497 16.0669 11.4325C15.9497 11.3153 15.7908 11.2495 15.625 11.2495ZM15.625 6.24947H6.76758C6.63825 5.88403 6.39884 5.56766 6.0823 5.34391C5.76576 5.12015 5.38764 5 5 5C4.61236 5 4.23424 5.12015 3.9177 5.34391C3.60116 5.56766 3.36175 5.88403 3.23242 6.24947H0.625C0.45924 6.24947 0.300268 6.31531 0.183058 6.43252C0.065848 6.54974 0 6.70871 0 6.87447C0 7.04023 0.065848 7.1992 0.183058 7.31641C0.300268 7.43362 0.45924 7.49947 0.625 7.49947H3.23242C3.36175 7.8649 3.60116 8.18127 3.9177 8.40503C4.23424 8.62878 4.61236 8.74893 5 8.74893C5.38764 8.74893 5.76576 8.62878 6.0823 8.40503C6.39884 8.18127 6.63825 7.8649 6.76758 7.49947H15.625C15.7908 7.49947 15.9497 7.43362 16.0669 7.31641C16.1842 7.1992 16.25 7.04023 16.25 6.87447C16.25 6.70871 16.1842 6.54974 16.0669 6.43252C15.9497 6.31531 15.7908 6.24947 15.625 6.24947Z" fill="#342318"/>
</svg>
