<svg width="18" height="12" viewBox="0 0 18 12" fill="none" xmlns="http://www.w3.org/2000/svg">
<path d="M0.21967 4.99262C-0.0732233 5.28551 -0.0732233 5.76039 0.21967 6.05328L4.99264 10.8263C5.28553 11.1191 5.76041 11.1191 6.0533 10.8263C6.34619 10.5334 6.34619 10.0585 6.0533 9.76559L1.81066 5.52295L6.0533 1.28031C6.34619 0.987415 6.34619 0.512542 6.0533 0.219648C5.76041 -0.073245 5.28553 -0.073245 4.99264 0.219648L0.21967 4.99262ZM16.75 6.27295C17.1642 6.27295 17.5 5.93716 17.5 5.52295C17.5 5.10874 17.1642 4.77295 16.75 4.77295V5.52295V6.27295ZM0.75 5.52295V6.27295H16.75V5.52295V4.77295H0.75V5.52295Z" fill="#902732"/>
</svg>
