<svg width="16" height="20" fill="none" xmlns="http://www.w3.org/2000/svg"><mask id="a" fill="#fff"><path d="M0 6.728c0-.22.18-.4.4-.4h15.2c.22 0 .4.18.4.4v9.657a2.8 2.8 0 01-2.8 2.8H2.8a2.8 2.8 0 01-2.8-2.8V6.728z"/></mask><path d="M0 6.728c0-.22.18-.4.4-.4h15.2c.22 0 .4.18.4.4v9.657a2.8 2.8 0 01-2.8 2.8H2.8a2.8 2.8 0 01-2.8-2.8V6.728z" stroke="#BFBFBF" stroke-width="2" mask="url(#a)"/><path d="M11.718 9.191v-5.2a2.8 2.8 0 00-2.8-2.8H7.089a2.8 2.8 0 00-2.8 2.8v5.2" stroke="#BFBFBF" stroke-linecap="round"/></svg>